<?xml version="1.0" standalone="no"?><!DOCTYPE svg PUBLIC "-//W3C//DTD SVG 1.1//EN" "http://www.w3.org/Graphics/SVG/1.1/DTD/svg11.dtd"><svg t="1623777059400" class="icon" viewBox="0 0 1024 1024" version="1.1" xmlns="http://www.w3.org/2000/svg" p-id="1981" xmlns:xlink="http://www.w3.org/1999/xlink" width="64" height="64"><defs><style type="text/css"></style></defs><path d="M692.906667 887.466667H296.96c-34.133333 0-61.44-27.306667-61.44-61.44 0-44.373333 34.133333-81.92 78.506667-88.746667l174.08-27.306667-296.96-296.96c-30.72-30.72-30.72-78.506667 0-109.226666 30.72-30.72 81.92-30.72 112.64 0l81.92 81.92c3.413333-13.653333 10.24-27.306667 20.48-40.96 27.306667-27.306667 78.506667-30.72 105.813333-3.413334 3.413333-13.653333 10.24-27.306667 20.48-40.96 27.306667-27.306667 78.506667-27.306667 105.813333 0 3.413333-13.653333 10.24-27.306667 20.48-40.96 30.72-30.72 81.92-30.72 109.226667 0l160.426667 177.493334c37.546667 40.96 61.44 98.986667 61.44 153.6 0 61.44-23.893333 119.466667-68.266667 163.84l-68.266667 68.266666c-40.96 40.96-98.986667 64.853333-160.426666 64.853334zM249.173333 314.026667c-10.24 0-20.48 3.413333-30.72 13.653333-17.066667 17.066667-17.066667 44.373333 0 61.44l320.853334 320.853333c3.413333 3.413333 6.826667 10.24 3.413333 17.066667s-6.826667 10.24-13.653333 10.24l-204.8 34.133333c-30.72 3.413333-51.2 27.306667-51.2 54.613334 0 17.066667 10.24 27.306667 23.893333 27.306666h395.946667c51.2 0 102.4-20.48 139.946666-58.026666l68.266667-68.266667c37.546667-37.546667 58.026667-85.333333 58.026667-139.946667 0-47.786667-17.066667-95.573333-51.2-133.12l-160.426667-174.08c-13.653333-13.653333-44.373333-17.066667-61.44 0s-17.066667 44.373333 0 61.44l3.413333 3.413334c6.826667 6.826667 6.826667 17.066667 0 23.893333-6.826667 6.826667-17.066667 6.826667-23.893333 0l-44.373333-44.373333c-17.066667-17.066667-44.373333-17.066667-61.44 0s-17.066667 44.373333 0 61.44l44.373333 44.373333c6.826667 6.826667 6.826667 17.066667 0 23.893333s-17.066667 6.826667-23.893333 0L532.48 409.6l-40.96-40.96c-17.066667-17.066667-44.373333-17.066667-61.44 0s-17.066667 44.373333 0 61.44l88.746667 88.746667c6.826667 6.826667 6.826667 17.066667 0 23.893333s-17.066667 6.826667-23.893334 0l-88.746666-88.746667-126.293334-126.293333c-10.24-6.826667-20.48-13.653333-30.72-13.653333z" fill="" p-id="1982"></path><path d="M150.186667 498.346667h-6.826667c-68.266667-30.72-109.226667-98.986667-109.226667-170.666667C34.133333 221.866667 119.466667 136.533333 221.866667 136.533333c75.093333 0 139.946667 44.373333 170.666666 109.226667 3.413333 10.24 0 17.066667-10.24 23.893333-10.24 3.413333-17.066667 0-23.893333-10.24C337.92 204.8 279.893333 170.666667 221.866667 170.666667 136.533333 170.666667 68.266667 238.933333 68.266667 324.266667c0 61.44 34.133333 116.053333 92.16 139.946666 6.826667 3.413333 10.24 13.653333 6.826666 23.893334-3.413333 3.413333-10.24 10.24-17.066666 10.24z" fill="" p-id="1983"></path></svg>