<?xml version="1.0" standalone="no"?><!DOCTYPE svg PUBLIC "-//W3C//DTD SVG 1.1//EN" "http://www.w3.org/Graphics/SVG/1.1/DTD/svg11.dtd"><svg t="1625125260370" class="icon" viewBox="0 0 1024 1024" version="1.1" xmlns="http://www.w3.org/2000/svg" p-id="11586" xmlns:xlink="http://www.w3.org/1999/xlink" width="200" height="200"><defs><style type="text/css"></style></defs><path d="M237.653333 810.666667a20.053333 20.053333 0 0 1-14.933333-5.973334 21.333333 21.333333 0 0 1 0-30.293333L727.466667 264.96a21.333333 21.333333 0 0 1 29.866666 0 21.333333 21.333333 0 0 1 0 30.293333L252.586667 802.56a21.333333 21.333333 0 0 1-14.933334 8.106667z" p-id="11587"></path><path d="M786.346667 554.666667a21.333333 21.333333 0 0 1-21.333334-21.333334V258.56h-275.626666a21.333333 21.333333 0 0 1-21.333334-21.333333 21.333333 21.333333 0 0 1 21.333334-21.333334h296.106666a23.04 23.04 0 0 1 15.36 5.973334 22.186667 22.186667 0 0 1 5.973334 14.933333v298.666667a21.333333 21.333333 0 0 1-21.333334 21.333333z" p-id="11588"></path></svg>